<?xml version="1.0" standalone="no"?>
<!DOCTYPE svg PUBLIC "-//W3C//DTD SVG 20010904//EN"
 "http://www.w3.org/TR/2001/REC-SVG-20010904/DTD/svg10.dtd">
<svg version="1.0" xmlns="http://www.w3.org/2000/svg"
 width="250.000000pt" height="250.000000pt" viewBox="0 0 250.000000 250.000000"
 preserveAspectRatio="xMidYMid meet">
<metadata>
Created by potrace 1.11, written by Peter Selinger 2001-2013
</metadata>
<g transform="translate(0.000000,250.000000) scale(0.100000,-0.100000)"
fill="#000000" stroke="none">
<path d="M1045 2484 c-524 -95 -925 -489 -1026 -1009 -14 -75 -19 -318 -7
-400 57 -402 311 -756 673 -939 180 -90 329 -127 530 -131 173 -4 272 9 410
52 320 100 608 349 750 649 84 176 116 317 120 519 3 170 -9 260 -56 406 -61
194 -155 346 -308 500 -183 182 -385 293 -631 345 -104 22 -353 26 -455 8z
m165 -430 l0 -276 -77 5 c-129 9 -283 48 -283 70 0 17 69 141 124 225 47 70
210 252 227 252 5 0 9 -118 9 -276z m183 186 c92 -98 176 -218 225 -321 18
-37 32 -69 32 -72 0 -6 -119 -42 -170 -51 -28 -5 -135 -17 -160 -18 -29 -1
-30 5 -30 277 0 156 4 275 9 275 5 0 47 -40 94 -90z m-339 68 c-5 -7 -23 -29
-40 -48 -72 -78 -169 -224 -219 -332 -26 -55 -27 -56 -53 -45 -78 34 -242 134
-242 148 0 4 22 26 49 48 131 110 256 176 421 221 81 23 93 24 84 8z m492 -13
c49 -14 130 -46 180 -70 113 -55 291 -184 273 -199 -65 -50 -173 -115 -236
-141 l-32 -14 -41 82 c-61 124 -133 232 -207 312 -34 38 -45 55 -35 55 5 0 50
-11 98 -25z m-1034 -374 c40 -27 107 -67 149 -88 l76 -39 -24 -79 c-13 -44
-26 -91 -28 -105 -11 -54 -15 -76 -20 -99 -4 -22 -18 -179 -18 -208 0 -10 -56
-13 -244 -13 l-243 0 6 53 c20 194 83 367 188 519 42 62 77 108 83 108 1 0 35
-22 75 -49z m1584 12 c15 -21 31 -40 34 -43 16 -12 94 -155 124 -226 34 -82
71 -230 80 -321 l4 -53 -244 0 -244 0 -1 58 c-2 60 -2 68 -13 146 -8 57 -38
189 -59 257 l-14 45 76 37 c42 21 108 60 146 87 39 27 73 49 76 49 4 1 19 -16
35 -36z m-1170 -197 c86 -21 93 -22 174 -31 36 -4 74 -8 85 -9 19 -3 20 -12
23 -204 l2 -202 -240 0 -240 0 0 38 c0 68 20 205 46 305 30 122 39 140 62 128
9 -4 49 -16 88 -25z m783 -43 c39 -136 48 -185 57 -315 l7 -88 -242 0 -241 0
0 203 0 202 57 3 c59 3 235 35 275 51 55 23 66 16 87 -56z m-1058 -535 c1
-116 33 -286 82 -428 l33 -97 -74 -33 c-40 -18 -104 -53 -140 -76 l-67 -43
-38 37 c-41 40 -137 174 -137 191 0 6 -4 11 -8 11 -4 0 -13 12 -19 28 -6 15
-25 59 -41 97 -33 80 -68 223 -75 308 l-4 57 243 0 244 0 1 -52z m559 -188 c0
-184 -3 -242 -12 -245 -7 -2 -47 -6 -88 -9 -41 -4 -119 -17 -172 -29 l-96 -24
-17 46 c-31 86 -34 96 -50 158 -25 100 -35 160 -41 254 l-7 89 242 0 241 0 0
-240z m560 202 c0 -35 -15 -171 -24 -217 -9 -44 -29 -114 -57 -202 l-30 -92
-47 14 c-63 19 -206 43 -270 46 l-52 3 0 243 0 243 240 0 240 0 0 -38z m566
11 c-2 -16 -8 -55 -12 -88 -4 -33 -8 -62 -9 -65 -1 -3 -5 -21 -9 -40 -14 -62
-68 -202 -97 -252 -16 -27 -29 -51 -29 -54 0 -10 -108 -149 -137 -176 l-28
-26 -78 48 c-43 27 -107 61 -142 76 l-63 27 14 33 c17 40 71 228 77 269 3 17
8 48 11 70 4 22 8 51 11 65 2 14 4 51 4 83 l1 57 245 0 245 0 -4 -27z m-1126
-777 c0 -130 -4 -236 -8 -236 -11 0 -148 142 -188 195 -50 65 -138 215 -130
222 12 13 192 48 259 51 l67 3 0 -235z m323 205 c43 -10 80 -21 84 -24 10 -10
-116 -212 -171 -274 -43 -47 -142 -143 -148 -143 -4 0 -8 106 -8 236 l0 237
83 -7 c45 -3 117 -14 160 -25z m-701 -111 c48 -91 118 -191 182 -260 52 -57
54 -63 15 -55 -63 12 -193 57 -254 87 -57 29 -167 98 -210 133 -20 16 -20 16
5 35 43 34 223 121 230 113 4 -4 18 -28 32 -53z m997 -1 c42 -21 87 -48 101
-59 25 -19 25 -19 5 -35 -56 -45 -158 -107 -225 -139 -73 -34 -246 -89 -262
-84 -4 2 6 19 23 38 62 70 148 191 189 264 47 87 36 85 169 15z"/>
</g>
</svg>
